<svg xmlns="http://www.w3.org/2000/svg" data-name="Layer 1" viewBox="0 0 512 512"><g fill="#fff" class="color000000 svgShape" data-name="&amp;lt;Group&amp;gt;"><path d="M192.355 476.005c42.075-.013 76.319-32.252 76.333-71.867 0-10.166-5.722-30.982-32.979-72.4-13.43-20.1-28-39.835-43.356-58.754-15.361 18.92-29.929 38.662-43.388 58.8-27.223 41.368-32.946 62.184-32.947 72.353C116.032 443.753 150.276 475.992 192.355 476.005zM336.9 323.6c32.567-.01 59.074-24.922 59.085-55.533 0-15-16.268-41.959-25.964-56.693-10.279-15.381-21.4-30.5-33.123-45.037-11.721 14.533-22.849 29.663-33.154 45.084-9.665 14.687-25.931 41.644-25.933 56.647C277.818 298.674 304.326 323.586 336.9 323.6zM197.355 190.405c31.975-.01 58-24.465 58.01-54.515 0-6.319-3.317-21.963-25.528-55.714-10.081-15.086-20.99-29.922-32.484-44.181-11.494 14.259-22.407 29.1-32.516 44.228-22.176 33.7-25.495 49.344-25.5 55.667C139.352 165.94 165.376 190.4 197.355 190.405z" class="color000000 svgShape" data-name="&lt;Path&gt;"/></g></svg>