<svg xmlns="http://www.w3.org/2000/svg" data-name="Layer 1" viewBox="0 0 68 68"><path fill="#fff" d="M22.37 26.13c6.11-.48 10.34-2.5 12.58-6 3-4.69 1-10.08.95-10.31a8.47 8.47 0 1 0-8.5 10.48 18.78 18.78 0 0 1-5.31 1.12H4.37a2.37 2.37 0 1 0 0 4.74h18zm19.29 22.99c-2.23-3.5-6.46-5.52-12.58-6H18.51a2.38 2.38 0 0 0 0 4.75H28.8a22.35 22.35 0 0 1 3 .42 8.47 8.47 0 1 0 11.5 7.9 11.29 11.29 0 0 0-1.64-7.07zM65.62 19a10.12 10.12 0 1 0-11.54 11.75 25.67 25.67 0 0 1-4.95.85H26.41a2.38 2.38 0 0 0 0 4.75h23c7.16-.57 12.09-2.91 14.68-7A13.86 13.86 0 0 0 65.62 19zM9 31.6a2.38 2.38 0 0 0 0 4.75h9.56a2.38 2.38 0 1 0 0-4.75zm1 11.51H7.43a2.38 2.38 0 1 0 0 4.75H10a2.38 2.38 0 0 0 0-4.75z" class="colorafbdd6 svgShape"/></svg>